<svg width="30" height="30" viewBox="0 0 30 30" fill="none" xmlns="http://www.w3.org/2000/svg">
<path d="M14.1667 22.5H15.8333V13.3333H14.1667V22.5ZM15.7233 10.6667C15.9256 10.47 16.0267 10.2261 16.0267 9.935C16.0267 9.64389 15.9278 9.40055 15.73 9.205C15.5322 9.00944 15.2889 8.91111 15 8.91C14.7111 8.90889 14.4678 9.00722 14.27 9.205C14.0722 9.40278 13.9739 9.64667 13.975 9.93667C13.9761 10.2267 14.0767 10.47 14.2767 10.6667C14.4767 10.8633 14.7178 10.9617 15 10.9617C15.2822 10.9617 15.5233 10.8633 15.7233 10.6667ZM15.0067 30C12.9311 30 10.9806 29.6067 9.155 28.82C7.32944 28.0322 5.74111 26.9633 4.39 25.6133C3.03889 24.2633 1.96944 22.6767 1.18167 20.8533C0.393889 19.03 0 17.0806 0 15.005C0 12.9294 0.393889 10.9794 1.18167 9.155C1.96833 7.32944 3.03556 5.74111 4.38333 4.39C5.73111 3.03889 7.31833 1.96944 9.145 1.18167C10.9717 0.393889 12.9217 0 14.995 0C17.0683 0 19.0183 0.393889 20.845 1.18167C22.6706 1.96833 24.2589 3.03611 25.61 4.385C26.9611 5.73389 28.0306 7.32111 28.8183 9.14667C29.6061 10.9722 30 12.9217 30 14.995C30 17.0683 29.6067 19.0183 28.82 20.845C28.0333 22.6717 26.9644 24.26 25.6133 25.61C24.2622 26.96 22.6756 28.0294 20.8533 28.8183C19.0311 29.6072 17.0833 30.0011 15.0067 30ZM15 28.3333C18.7222 28.3333 21.875 27.0417 24.4583 24.4583C27.0417 21.875 28.3333 18.7222 28.3333 15C28.3333 11.2778 27.0417 8.125 24.4583 5.54167C21.875 2.95833 18.7222 1.66667 15 1.66667C11.2778 1.66667 8.125 2.95833 5.54167 5.54167C2.95833 8.125 1.66667 11.2778 1.66667 15C1.66667 18.7222 2.95833 21.875 5.54167 24.4583C8.125 27.0417 11.2778 28.3333 15 28.3333Z" fill="#00B37E"/>
</svg>
